<?xml version="1.0"?>
<svg width="317" height="29" xmlns="http://www.w3.org/2000/svg" xmlns:svg="http://www.w3.org/2000/svg">
 <!-- Generator: Sketch 51.3 (57544) - http://www.bohemiancoding.com/sketch -->
 <title>logo</title>
 <desc>Created with Sketch.</desc>

 <g class="layer" display="none">
  <title>Layer 1</title>
  <g fill="none" fill-rule="evenodd" id="Page-1">
   <g id="logo">
    <path d="m22.707,0.716l0,27.284l-4.047,0l0,-12.293l-14.231,0l0,12.293l-4.066,0l0,-27.284l4.066,0l0,12.046l14.231,0l0,-12.046l4.047,0zm17.385,24.035c1.08934,0 2.06466,-0.18366 2.926,-0.551c0.86134,-0.36734 1.58966,-0.8835 2.185,-1.5485c0.59534,-0.665 1.05133,-1.45666 1.368,-2.375c0.31667,-0.91834 0.475,-1.93483 0.475,-3.0495l0,-16.511l4.028,0l0,16.511c0,1.59601 -0.25333,3.07166 -0.76,4.427c-0.50667,1.35534 -1.235,2.527 -2.185,3.515c-0.95,0.988 -2.10266,1.76066 -3.458,2.318c-1.35534,0.55734 -2.88166,0.836 -4.579,0.836c-1.69734,0 -3.22366,-0.27866 -4.579,-0.836c-1.35534,-0.55734 -2.508,-1.33 -3.458,-2.318c-0.95,-0.988 -1.67833,-2.15966 -2.185,-3.515c-0.50667,-1.35534 -0.76,-2.83099 -0.76,-4.427l0,-16.511l4.047,0l0,16.492c0,1.11467 0.15517,2.13433 0.4655,3.059c0.31033,0.92467 0.76316,1.7195 1.3585,2.3845c0.59534,0.665 1.32366,1.18116 2.185,1.5485c0.86134,0.36734 1.83666,0.551 2.926,0.551zm39.653,-10.032l0,10.64c-1.38067,0.988 -2.84999,1.72583 -4.408,2.2135c-1.55801,0.48767 -3.25532,0.7315 -5.092,0.7315c-2.20401,0 -4.19582,-0.342 -5.9755,-1.026c-1.77968,-0.684 -3.29649,-1.64033 -4.5505,-2.869c-1.25401,-1.22867 -2.21983,-2.69799 -2.8975,-4.408c-0.67767,-1.71001 -1.0165,-3.59099 -1.0165,-5.643c0,-2.06468 0.32616,-3.95516 0.9785,-5.6715c0.65234,-1.71634 1.58649,-3.18566 2.8025,-4.408c1.21601,-1.22234 2.68849,-2.17233 4.4175,-2.85c1.72901,-0.67767 3.67016,-1.0165 5.8235,-1.0165c1.08934,0 2.0995,0.08233 3.0305,0.247c0.931,0.16467 1.7955,0.399 2.5935,0.703c0.798,0.304 1.53583,0.66816 2.2135,1.0925c0.67767,0.42434 1.30783,0.9025 1.8905,1.4345l-1.159,1.824c-0.17733,0.29133 -0.41167,0.475 -0.703,0.551c-0.29133,0.076 -0.608,0.00633 -0.95,-0.209c-0.32934,-0.19 -0.6935,-0.41167 -1.0925,-0.665c-0.399,-0.25333 -0.874,-0.48767 -1.425,-0.703c-0.551,-0.21533 -1.19383,-0.399 -1.9285,-0.551c-0.73467,-0.152 -1.60233,-0.228 -2.603,-0.228c-1.49467,0 -2.84366,0.24383 -4.047,0.7315c-1.20334,0.48767 -2.22933,1.1875 -3.078,2.0995c-0.84867,0.912 -1.501,2.01083 -1.957,3.2965c-0.456,1.28567 -0.684,2.72649 -0.684,4.3225c0,1.67201 0.24066,3.16983 0.722,4.4935c0.48134,1.32367 1.16216,2.44466 2.0425,3.363c0.88034,0.91834 1.95066,1.61816 3.211,2.0995c1.26034,0.48134 2.66949,0.722 4.2275,0.722c0.608,0 1.17483,-0.03483 1.7005,-0.1045c0.52567,-0.06967 1.02916,-0.16783 1.5105,-0.2945c0.48134,-0.12667 0.94683,-0.285 1.3965,-0.475c0.44967,-0.19 0.89616,-0.399 1.3395,-0.627l0,-5.719l-4.028,0c-0.25333,0 -0.45917,-0.076 -0.6175,-0.228c-0.15833,-0.152 -0.2375,-0.342 -0.2375,-0.57l0,-2.299l8.55,0zm30.875,-0.361c0,2.03934 -0.32616,3.91082 -0.9785,5.6145c-0.65234,1.70368 -1.57383,3.17299 -2.7645,4.408c-1.19067,1.23501 -2.61566,2.1945 -4.275,2.8785c-1.65934,0.684 -3.50232,1.026 -5.529,1.026c-2.01401,0 -3.85382,-0.342 -5.5195,-1.026c-1.66567,-0.684 -3.09066,-1.64349 -4.275,-2.8785c-1.18434,-1.23501 -2.10583,-2.70432 -2.7645,-4.408c-0.65867,-1.70368 -0.988,-3.57516 -0.988,-5.6145c0,-2.02668 0.32933,-3.89499 0.988,-5.605c0.65867,-1.71001 1.58016,-3.18249 2.7645,-4.4175c1.18434,-1.23501 2.60933,-2.19766 4.275,-2.888c1.66568,-0.69034 3.50549,-1.0355 5.5195,-1.0355c2.02668,0 3.86966,0.34516 5.529,1.0355c1.65934,0.69034 3.08433,1.65299 4.275,2.888c1.19067,1.23501 2.11216,2.70749 2.7645,4.4175c0.65234,1.71001 0.9785,3.57832 0.9785,5.605zm-4.142,0c0,-1.62134 -0.22166,-3.07799 -0.665,-4.37c-0.44334,-1.29201 -1.0735,-2.38766 -1.8905,-3.287c-0.817,-0.89934 -1.80499,-1.58966 -2.964,-2.071c-1.15901,-0.48134 -2.45416,-0.722 -3.8855,-0.722c-1.43134,0 -2.72649,0.24066 -3.8855,0.722c-1.15901,0.48134 -2.15016,1.17166 -2.9735,2.071c-0.82334,0.89934 -1.45666,1.99499 -1.9,3.287c-0.44334,1.29201 -0.665,2.74866 -0.665,4.37c0,1.63401 0.22166,3.09383 0.665,4.3795c0.44334,1.28567 1.07666,2.37816 1.9,3.2775c0.82334,0.89934 1.81449,1.5865 2.9735,2.0615c1.15901,0.475 2.45416,0.7125 3.8855,0.7125c1.43134,0 2.72649,-0.2375 3.8855,-0.7125c1.15901,-0.475 2.147,-1.16216 2.964,-2.0615c0.817,-0.89934 1.44716,-1.99183 1.8905,-3.2775c0.44334,-1.28567 0.665,-2.74549 0.665,-4.3795z" fill="#000000" id="HUGO"/>
    <path d="m138.707,0.716l0,27.284l-4.047,0l0,-12.293l-14.231,0l0,12.293l-4.066,0l0,-27.284l4.066,0l0,12.046l14.231,0l0,-12.046l4.047,0zm23.674,23.997l-0.019,3.287l-16.91,0l0,-27.284l16.91,0l0,3.287l-12.844,0l0,8.645l10.336,0l0,3.173l-10.336,0l0,8.892l12.863,0zm12.73,-10.849c1.03867,0 1.95383,-0.12667 2.7455,-0.38c0.79167,-0.25333 1.4535,-0.61116 1.9855,-1.0735c0.532,-0.46234 0.931,-1.01333 1.197,-1.653c0.266,-0.63967 0.399,-1.34583 0.399,-2.1185c0,-1.57067 -0.51616,-2.755 -1.5485,-3.553c-1.03234,-0.798 -2.58082,-1.197 -4.6455,-1.197l-3.819,0l0,9.975l3.686,0zm12.73,14.136l-3.61,0c-0.722,0 -1.24766,-0.285 -1.577,-0.855l-6.745,-9.462c-0.21533,-0.31667 -0.44966,-0.5415 -0.703,-0.6745c-0.25334,-0.133 -0.63333,-0.1995 -1.14,-0.1995l-2.641,0l0,11.191l-4.047,0l0,-27.284l7.866,0c1.76067,0 3.27749,0.1805 4.5505,0.5415c1.27301,0.361 2.32433,0.874 3.154,1.539c0.82967,0.665 1.444,1.46616 1.843,2.4035c0.399,0.93734 0.5985,1.98866 0.5985,3.154c0,0.95 -0.14566,1.843 -0.437,2.679c-0.29134,0.836 -0.71883,1.5865 -1.2825,2.2515c-0.56367,0.665 -1.25083,1.23816 -2.0615,1.7195c-0.81067,0.48134 -1.72899,0.84867 -2.755,1.102c0.50667,0.304 0.94366,0.72833 1.311,1.273l7.676,10.621zm28.614,-13.642c0,2.03934 -0.32616,3.91082 -0.9785,5.6145c-0.65234,1.70368 -1.57383,3.17299 -2.7645,4.408c-1.19067,1.23501 -2.61566,2.1945 -4.275,2.8785c-1.65934,0.684 -3.50232,1.026 -5.529,1.026c-2.01401,0 -3.85383,-0.342 -5.5195,-1.026c-1.66567,-0.684 -3.09066,-1.64349 -4.275,-2.8785c-1.18434,-1.23501 -2.10583,-2.70432 -2.7645,-4.408c-0.65867,-1.70368 -0.988,-3.57516 -0.988,-5.6145c0,-2.02668 0.32933,-3.89499 0.988,-5.605c0.65867,-1.71001 1.58016,-3.18249 2.7645,-4.4175c1.18434,-1.23501 2.60933,-2.19766 4.275,-2.888c1.66567,-0.69034 3.50549,-1.0355 5.5195,-1.0355c2.02668,0 3.86966,0.34516 5.529,1.0355c1.65934,0.69034 3.08433,1.65299 4.275,2.888c1.19067,1.23501 2.11216,2.70749 2.7645,4.4175c0.65234,1.71001 0.9785,3.57832 0.9785,5.605zm-4.142,0c0,-1.62134 -0.22166,-3.07799 -0.665,-4.37c-0.44334,-1.29201 -1.0735,-2.38766 -1.8905,-3.287c-0.817,-0.89934 -1.80499,-1.58966 -2.964,-2.071c-1.15901,-0.48134 -2.45416,-0.722 -3.8855,-0.722c-1.43134,0 -2.72649,0.24066 -3.8855,0.722c-1.15901,0.48134 -2.15016,1.17166 -2.9735,2.071c-0.82334,0.89934 -1.45666,1.99499 -1.9,3.287c-0.44334,1.29201 -0.665,2.74866 -0.665,4.37c0,1.63401 0.22166,3.09383 0.665,4.3795c0.44334,1.28567 1.07666,2.37816 1.9,3.2775c0.82334,0.89934 1.81449,1.5865 2.9735,2.0615c1.15901,0.475 2.45416,0.7125 3.8855,0.7125c1.43134,0 2.72649,-0.2375 3.8855,-0.7125c1.15901,-0.475 2.147,-1.16216 2.964,-2.0615c0.817,-0.89934 1.44716,-1.99183 1.8905,-3.2775c0.44334,-1.28567 0.665,-2.74549 0.665,-4.3795z" fill="#1C3ED3" id="HERO"/>
   </g>
  </g>
 </g>
 <g class="layer" display="none">
  <title>back1</title>
  <rect fill="#ffffff" height="28.499999" id="svg_3" stroke="#000000" stroke-width="0" width="213.500005" x="-5.125" y="-9.796875"/>
 </g>
 <g class="layer" display="inline">
  <title>Text</title>
  <text fill="#000000" font-family="Sans-serif" font-size="32" id="svg_1" stroke="#000000" stroke-width="0" text-anchor="middle" x="65.375" xml:space="preserve" y="25.703125">UBUNTU</text>
  <text fill="#1d1dc6" font-family="Sans-serif" font-size="32" id="svg_2" stroke="#000000" stroke-width="0" text-anchor="middle" x="202.75" xml:space="preserve" y="25.5">Software</text>
 </g>
</svg>